# xmcd
#
# Track frame offsets:
#	150
#	15455
#	41272
#	62473
#	97260
#	123949
#	141385
#	174380
#	196912
#	229942
#	263542
#	286303
#	301374
#	319325
#
# Disc length: 4543 seconds
#
# Revision: 1
# Processed by: cddbd v1.5.2PL0 Copyright (c) Steve Scherf et al.
# Submitted via: audiograbber 1.83.01
#
DISCID=be11bd0e
DTITLE=Wayne Shorter - Weather Report Recordings Of Wayne Shorter-Disc 1
DYEAR=2011
DGENRE=Jazz
TTITLE0=Tears
TTITLE1=Eurydice
TTITLE2=The Moors
TTITLE3=Surucucu
TTITLE4=Manolete
TTITLE5=Non-stop Home
TTITLE6=Mysterious Traveler
TTITLE7=Blackthorn Rose
TTITLE8=Lusitanos
TTITLE9=Freezing Fire
TTITLE10=Elegant People
TTITLE11=Three Clowns
TTITLE12=Harlequin
TTITLE13=Palladium
EXTD=
EXTT0=
EXTT1=
EXTT2=
EXTT3=
EXTT4=
EXTT5=
EXTT6=
EXTT7=
EXTT8=
EXTT9=
EXTT10=
EXTT11=
EXTT12=
EXTT13=
PLAYORDER=
